Patient4_TMGait_0pt4_03_right_03_EMG.mot
version=1
nRows=16
nColumns=33
inDegrees=no
endheader
time	1LAddLong	2LGlutMax	3LGlutMed	4LIliopsoas	5LSemiMemb	6LBicFemLong	7LRecFem	8LVastMed	9LVastLat	10LGasMed	11LTibAnt	12lTibPost	13LPeroneusLong	14LSol	15LExtDigLong	16LFlexDigLong	17RAddLong	18RGlutMax	19RGlutMed	20RIliopsoas	21RSemiMemb	22RBicFemLong	23RRecFem	24RVastMed	25RVastLat	26RGasMed	27RTibAnt	28RTibPost	29RPeroneusLong	30RSol	31RExtDigLong	32RFlexDigLong
2.8	-0.01297	-0.098114	0.089417	-0.013428	-0.058594	0.036926	0.068359	-0.001373	-0.01709	-0.079193	0.054016	0.000305	-0.27298	0.019989	0.068665	0.007935	0.008392	0.31128	-0.044708	0.10208	0.18906	-0.024872	-0.10391	-0.11581	0.003662	-0.005646	-0.23727	0.001373	-0.031586	0.000763	-0.00412	-0.003662
2.801	-0.003204	-0.10452	-0.034637	0.005798	-0.012054	0.032959	0.039215	0.003052	-0.024872	-0.046539	0.037231	0.001984	-0.099945	0.033875	-0.033722	-0.005646	0.007172	0.28748	-0.1265	0.11383	0.17868	-0.041199	-0.080872	-0.12405	-0.028687	-0.003815	-0.0914	-0.00061	-0.000916	0.015259	-0.003204	-0.002747
2.802	-0.005646	-0.082397	-0.15411	-0.001678	-0.003357	0.056915	-0.048676	-0.001373	0.001068	-0.071869	0.024414	-0.000916	-0.020447	0.030212	-0.096893	0.00412	0.007324	0.25681	-0.14694	0.10757	0.17548	-0.052185	-0.039673	-0.11704	-0.02594	-0.002441	-0.24368	-0.000305	0.037079	0.023499	-0.003967	-0.00351
2.803	-0.003357	-0.077515	0.004425	-0.000916	-0.023346	0.024109	-0.024109	0.002899	0.029297	-0.057373	-0.014038	-0.00473	0.000916	0.077057	-0.07843	0.015259	0.005798	0.28702	-0.014038	0.048065	0.17548	-0.046539	-0.1387	-0.12161	-0.002594	0.002289	-0.13092	0.007629	0.036774	-0.00412	-0.003052	-0.000305
2.804	-0.006256	-0.06897	0.09613	0.029297	-0.095978	-0.027618	0.033417	-0.006409	-0.013733	-0.026093	-0.007629	-0.002289	-0.12009	0.064392	-0.079651	-0.001221	0.013275	0.26154	-0.040131	0.037842	0.17014	-0.053711	-0.2449	-0.088348	-0.031433	-0.00412	-0.068665	-0.000916	-0.04425	-0.020447	0.000763	-0.004272
2.805	0.002136	-0.10757	0.041656	0.02121	-0.005798	-0.053864	0.057678	-0.013123	-0.11124	-0.036774	0.023956	0.002747	0.041962	-0.010529	-0.085144	0.011444	0.008545	0.24216	-0.16357	0.19119	0.16876	-0.053711	-0.18814	-0.08606	-0.01709	-0.004578	-0.039673	-0.00061	-0.036469	-0.002136	-0.003357	0.003357
2.806	0.004883	-0.103	-0.10895	0.016937	0.075378	-0.04303	0.052948	-0.011444	-0.11246	-0.05188	0.080109	0.004578	0.16296	0.003967	-0.006409	-0.008545	0.011139	0.19745	-0.27054	0.28259	0.14893	-0.040588	-0.045929	-0.080566	0.003204	-0.003967	0.21378	0.000153	-0.010071	-0.036469	-0.003967	0.016022
2.807	0.004578	-0.091095	-0.099182	-0.006104	0.069427	-0.022125	0.049133	-0.012207	-0.090942	-0.036926	0.072327	0.005035	-0.003357	0.037689	0.037689	0.000916	-0.00473	0.29724	0.18463	0.32883	0.14816	-0.03006	0.17868	-0.097656	-0.001221	0.000458	-0.055389	0.003357	0.004883	-0.090637	-0.000305	0.01297
2.808	-0.000458	-0.078278	0.22614	0.007935	0.063019	-0.026398	0.044861	0.001526	-0.091248	-0.034637	0.026703	0.005493	-0.098572	-0.00061	0.084686	-0.013885	-0.026093	0.24979	0.24643	0.29419	0.14877	-0.018921	0.27496	-0.016479	0.001984	-0.006104	0.26581	-0.001373	-0.012054	-0.11292	-0.003357	0.023346
2.809	-0.00946	-0.10788	0.015411	0.007477	0.053864	-0.009918	-0.015717	0.007019	-0.065155	-0.066528	0.024109	0.003967	-0.086212	0.042877	0.11368	0.006409	-0.014648	0.10666	-0.57388	0.16861	0.15152	-0.028534	0.2919	0.064545	0.002594	0.001526	0.30456	0.002594	-0.036163	-0.13245	0	0.018463
2.81	-0.006866	-0.084991	0.056763	0.002136	0.048676	-0.007935	-0.02533	0.005951	0.034485	0.006256	0.010986	0.004578	-0.15396	0.057526	0.11643	-0.000153	-0.020905	0.19226	-0.63751	0.079803	0.14999	-0.03891	0.40512	0.13809	0.025177	0.002441	0.25574	-0.005646	-0.051422	-0.12772	0.007935	0.016785
2.811	-0.006256	-0.088043	-0.049744	0.013733	0.036621	0.023193	0.010834	0.000305	0.036163	0.037079	-0.001526	0.006104	-0.080109	0.028076	0.036011	0.006866	-0.015411	0.13184	-0.065613	-0.021973	0.15243	-0.021515	0.47409	0.18249	0.026703	0.002441	0.18814	-0.000153	-0.1088	-0.058136	-0.001221	0.018311
2.812	-0.009308	-0.086365	-0.11673	-0.006866	0.007629	0.037079	0.055084	0.005341	0.013428	0.026398	-0.010681	0.001678	0.51422	0.011597	0.056152	0.005341	-0.004883	0.11993	0.2861	-0.059509	0.15945	-0.030518	0.61615	0.24887	0.017853	0.001984	0.089417	-0.007019	-0.087128	0.12039	-0.003815	0.019836
2.813	-0.015106	-0.060425	-0.054626	0.014954	0.020905	0.045776	0.048676	0.004425	0.015869	0.020294	-0.005341	0.000458	0.13214	0	0.1442	0.006409	0.001831	0.13748	0.233	0.029907	0.16754	-0.026398	0.60028	0.24109	0.023804	-0.001221	0.37323	-0.005798	0.042877	0.15045	-0.003967	0.018158
2.814	-0.008698	-0.078125	0.014648	0.013428	0.021362	0.03952	0.045319	0.007629	-0.014038	-0.031738	0.003357	0.00473	0.46906	0.022736	0.090942	-0.000153	0.015564	0.12161	-0.26321	0.17716	0.17166	-0.020142	0.42679	0.15595	0.009308	-0.010681	0.38147	-0.007172	-0.03952	0.16312	-0.007172	0.020142
2.815	-0.020447	-0.088806	0.015411	0.015259	0.01709	0.025482	0.044861	0.010986	-0.020447	-0.083313	0.011902	0.004272	0.046692	0.011292	0.0354	0.001831	0.035858	0.1059	-0.55588	0.1088	0.16739	-0.027618	0.29327	0.081787	0.002289	-0.00946	-0.40268	-0.00824	0.037231	0.07782	-0.008698	0.032654
